<svg width="16" height="14" viewBox="0 0 16 14" fill="none" xmlns="http://www.w3.org/2000/svg">
<path d="M9.68094 0.922576C9.43125 0.684764 9.03531 0.694139 8.7975 0.944139C8.55937 1.19414 8.56937 1.58976 8.81906 1.82789L13.6134 6.37508H1.125C0.78 6.37508 0.5 6.65508 0.5 7.00008C0.5 7.34508 0.78 7.62508 1.125 7.62508H13.5934L8.81906 12.1726C8.56906 12.4107 8.55937 12.8063 8.7975 13.0563C8.92031 13.1851 9.085 13.2501 9.25 13.2501C9.405 13.2501 9.56 13.1929 9.68094 13.0776L15.1337 7.88383C15.37 7.64789 15.5 7.33414 15.5 7.00008C15.5 6.66601 15.37 6.35226 15.1228 6.1057L9.68094 0.922576Z" fill="#F0F0F0"/>
</svg>
