<svg width="16" height="14" viewBox="0 0 16 14" fill="none" xmlns="http://www.w3.org/2000/svg">
<path d="M6.31906 0.922576C6.56875 0.684764 6.96469 0.694139 7.2025 0.944139C7.44063 1.19414 7.43063 1.58976 7.18094 1.82789L2.38656 6.37508H14.875C15.22 6.37508 15.5 6.65508 15.5 7.00008C15.5 7.34508 15.22 7.62508 14.875 7.62508H2.40656L7.18094 12.1726C7.43094 12.4107 7.44063 12.8063 7.2025 13.0563C7.07969 13.1851 6.915 13.2501 6.75 13.2501C6.595 13.2501 6.44 13.1929 6.31906 13.0776L0.86625 7.88383C0.63 7.64789 0.5 7.33414 0.5 7.00008C0.5 6.66601 0.63 6.35226 0.877188 6.1057L6.31906 0.922576Z" fill="#F0F0F0"/>
</svg>
