<svg width="11" height="21" viewBox="0 0 11 21" fill="none" xmlns="http://www.w3.org/2000/svg">
<path d="M0.534022 11.1846H2.83596V20.6613C2.83596 20.8484 2.98757 21 3.17467 21H7.07769C7.26479 21 7.4164 20.8484 7.4164 20.6613V11.2292H10.0627C10.2347 11.2292 10.3795 11.1001 10.3991 10.9292L10.8011 7.44037C10.8121 7.34438 10.7817 7.24825 10.7175 7.17624C10.6532 7.10416 10.5612 7.06291 10.4647 7.06291H7.41654V4.87593C7.41654 4.21666 7.7715 3.88236 8.47168 3.88236C8.57147 3.88236 10.4647 3.88236 10.4647 3.88236C10.6518 3.88236 10.8034 3.73068 10.8034 3.54365V0.341216C10.8034 0.154113 10.6518 0.00250645 10.4647 0.00250645H7.71805C7.69868 0.00155806 7.65566 0 7.59226 0C7.11569 0 5.4592 0.0935515 4.1507 1.29733C2.70088 2.6313 2.90242 4.22852 2.95058 4.50545V7.06284H0.534022C0.346919 7.06284 0.195312 7.21445 0.195312 7.40155V10.8458C0.195312 11.0329 0.346919 11.1846 0.534022 11.1846Z" fill="#F0F0F0"/>
</svg>
