<svg width="20" height="18" viewBox="0 0 20 18" fill="none" xmlns="http://www.w3.org/2000/svg">
<path d="M19.5468 2.70224C19.2326 2.8416 18.9096 2.95921 18.5795 3.05469C18.9703 2.61276 19.2682 2.09276 19.4501 1.52373C19.4908 1.39618 19.4486 1.25656 19.3437 1.17315C19.239 1.08966 19.0936 1.07966 18.9783 1.14798C18.2773 1.56373 17.521 1.8625 16.7281 2.03721C15.9293 1.25669 14.8444 0.8125 13.7228 0.8125C11.3554 0.8125 9.42936 2.7385 9.42936 5.10585C9.42936 5.29231 9.44117 5.47772 9.46453 5.66056C6.52678 5.40263 3.79562 3.95869 1.92014 1.65811C1.8533 1.57611 1.75034 1.53192 1.64492 1.54037C1.53943 1.54863 1.44466 1.60811 1.39137 1.69953C1.01098 2.35224 0.809884 3.09876 0.809884 3.85831C0.809884 4.89282 1.17924 5.87437 1.83169 6.64134C1.6333 6.57263 1.44079 6.48676 1.25705 6.38476C1.1584 6.32985 1.03801 6.33069 0.940013 6.38689C0.841949 6.44308 0.780465 6.54643 0.777884 6.6594C0.777433 6.67843 0.777433 6.69747 0.777433 6.71676C0.777433 8.26095 1.60853 9.65121 2.87917 10.4089C2.77001 10.398 2.66092 10.3822 2.55253 10.3615C2.44079 10.3402 2.32588 10.3793 2.25053 10.4646C2.17504 10.5497 2.15008 10.6684 2.18485 10.7768C2.65517 12.2452 3.86608 13.3253 5.32995 13.6546C4.11582 14.415 2.72737 14.8133 1.26982 14.8133C0.965691 14.8133 0.65982 14.7955 0.360465 14.76C0.211756 14.7424 0.069562 14.8302 0.0189169 14.9716C-0.0317282 15.1131 0.0219492 15.2708 0.148465 15.3519C2.02092 16.5525 4.18601 17.1871 6.40956 17.1871C10.7808 17.1871 13.5153 15.1258 15.0395 13.3966C16.9401 11.2404 18.0302 8.38637 18.0302 5.56643C18.0302 5.44863 18.0284 5.32966 18.0248 5.21108C18.7746 4.64611 19.4203 3.96237 19.9456 3.1765C20.0254 3.05714 20.0168 2.8994 19.9243 2.78953C19.832 2.6796 19.6781 2.64405 19.5468 2.70224Z" fill="#F0F0F0"/>
</svg>
